<svg width="78" height="80" xmlns="http://www.w3.org/2000/svg">

 <g>
  <title>background</title>
  <rect fill="none" id="canvas_background" height="82" width="80" y="-1" x="-1"/>
 </g>
 <g>
  <title>Layer 1</title>
  <path stroke="null" fill="#00bbb4" id="svg_3" d="m25.759333,37.103174l0,19.272588l15.368816,0l0,-9.263378c0,-2.152322 1.904588,-3.897116 4.254026,-3.897116s4.254116,1.744794 4.254116,3.897116l0,9.263378l4.199813,0l0,-19.272588l-28.07677,0zm10.916542,7.873442l-5.104867,0c-0.704855,0 -1.276217,-0.523484 -1.276217,-1.169143c0,-0.645729 0.571362,-1.169143 1.276217,-1.169143l5.104867,0c0.704867,0 1.276217,0.523414 1.276217,1.169143c0,0.645659 -0.57135,1.169143 -1.276217,1.169143z" class="st0"/>
  <path stroke="null" fill="#225160" id="svg_5" d="m58.940971,57.544905l-38.286505,0c-0.704791,0 -1.276217,-0.523484 -1.276217,-1.169143s0.571426,-1.169143 1.276217,-1.169143l38.286505,0c0.704791,0 1.276217,0.523484 1.276217,1.169143s-0.571426,1.169143 -1.276217,1.169143z" class="st1"/>
  <path stroke="null" fill="#166b68" id="svg_7" d="m26.046023,35.367721l-0.000013,0c-3.841183,0 -6.447677,-3.578139 -4.97357,-6.827597l3.283782,-7.238656l8.508104,0l-1.483296,9.809216c-0.36898,2.440107 -2.646006,4.257037 -5.335008,4.257037z" class="st2"/>
  <path stroke="null" fill="#166b68" id="svg_9" d="m39.995302,35.367721l-0.395168,0c-3.268417,0 -5.783496,-2.645245 -5.33502,-5.611127l1.278552,-8.455126l8.508104,0l1.278552,8.455126c0.448475,2.965882 -2.066603,5.611127 -5.33502,5.611127z" class="st2"/>
  <path stroke="null" fill="#166b68" id="svg_11" d="m53.549427,35.367721l-0.000013,0c-2.689002,0 -4.966028,-1.81693 -5.335008,-4.257037l-1.483296,-9.809216l8.508104,0l3.283782,7.238656c1.474107,3.249458 -1.132387,6.827597 -4.97357,6.827597z" class="st2"/>
 </g>
</svg>